<?xml version="1.0" encoding="utf-8"?>
<!-- Generator: Adobe Illustrator 16.0.1, SVG Export Plug-In . SVG Version: 6.00 Build 0)  -->
<!DOCTYPE svg PUBLIC "-//W3C//DTD SVG 1.1//EN" "http://www.w3.org/Graphics/SVG/1.1/DTD/svg11.dtd">
<svg version="1.1" id="Layer_1" xmlns="http://www.w3.org/2000/svg" xmlns:xlink="http://www.w3.org/1999/xlink" x="0px" y="0px"
	 width="144px" height="144px" viewBox="0 0 144 144" enable-background="new 0 0 144 144" xml:space="preserve">
<circle cx="72.055" cy="72.336" r="41.795"/>
<path d="M72.084,143.562c-2.526,0-5.088-0.136-7.616-0.404c-7.837-0.834-15.404-2.925-22.491-6.215l4.958-10.676
	c5.912,2.745,12.229,4.49,18.777,5.187c2.116,0.225,4.26,0.339,6.373,0.339c8.354,0,16.458-1.723,24.085-5.121l4.79,10.751
	C91.814,141.497,82.099,143.562,72.084,143.562z M112.955,130.621l-6.767-9.632c14.065-9.879,23.172-25.338,24.988-42.414
	l0.017-0.157l11.71,1.19l-0.025,0.233C140.706,100.272,129.799,118.789,112.955,130.621z M30.083,129.938
	C13.411,117.794,2.811,99.094,1,78.633l11.725-1.038c1.51,17.076,10.363,32.687,24.288,42.83L30.083,129.938z M131.277,66.883
	c-1.535-17.074-10.41-32.672-24.349-42.795l6.917-9.523C130.535,26.685,141.162,45.37,143,65.829L131.277,66.883z M12.833,65.988
	L1.117,64.861l0.011-0.112C3.3,44.329,14.178,25.833,30.973,14l6.779,9.623C23.728,33.502,14.646,48.944,12.833,65.988z M97,18.26
	c-5.89-2.724-12.182-4.457-18.701-5.15c-2.115-0.225-4.259-0.339-6.372-0.339c-0.001,0-0.002,0-0.003,0
	c-8.383,0-16.511,1.734-24.159,5.155L42.96,7.18C52.129,3.08,61.875,1,71.923,1c0.002,0,0.002,0,0.004,0
	c2.527,0,5.09,0.136,7.617,0.405c7.801,0.83,15.337,2.907,22.397,6.172L97,18.26z"/>
<circle cx="225" cy="74.918" r="38.681"/>
<g>
	
		<circle fill="none" stroke="#000000" stroke-width="11.0546" stroke-miterlimit="10" stroke-dasharray="52.3956,11.9081" cx="225" cy="74.918" r="61.414"/>
</g>
</svg>
